<svg width="311" height="265" viewBox="0 0 311 265" fill="none" xmlns="http://www.w3.org/2000/svg">
<path d="M219.618 110.926C225.567 110.926 230.014 112.061 232.958 114.33C235.901 116.599 237.374 119.881 237.374 124.174V146.852C237.374 147.557 237.527 148.094 237.833 148.462C238.171 148.83 238.57 149.014 239.03 149.014C239.49 149.014 239.935 148.845 240.364 148.508C240.824 148.17 241.115 147.557 241.238 146.668C241.299 146.484 241.36 146.376 241.421 146.346C241.483 146.285 241.544 146.254 241.605 146.254C241.728 146.254 241.82 146.3 241.881 146.392C241.943 146.453 241.973 146.576 241.973 146.76C241.973 147.496 241.606 148.462 240.87 149.658C240.134 150.854 238.922 151.927 237.236 152.878C235.549 153.829 233.264 154.304 230.381 154.304C227.161 154.304 224.846 153.768 223.435 152.694C222.172 151.733 221.475 150.611 221.343 149.33C220.24 150.654 218.853 151.729 217.179 152.556C214.757 153.721 212.15 154.304 209.36 154.304C205.772 154.304 202.812 153.353 200.481 151.452C198.15 149.52 196.986 147.066 196.986 144.092C196.986 140.351 198.549 137.422 201.677 135.306C204.805 133.159 209.988 132.086 217.225 132.086C218.56 132.086 219.633 132.226 220.446 132.5V115.664C220.446 114.56 220.154 113.686 219.572 113.042C218.989 112.398 218.283 112.076 217.456 112.076C216.413 112.076 215.585 112.383 214.971 112.996C214.358 113.609 214.051 114.453 214.051 115.526V120.402C214.051 122.518 213.254 124.343 211.66 125.876C210.096 127.409 208.026 128.176 205.45 128.176C203.671 128.176 202.229 127.701 201.125 126.75C200.022 125.769 199.469 124.281 199.469 122.288C199.469 120.571 200.221 118.838 201.723 117.09C203.226 115.342 205.464 113.885 208.439 112.72C211.444 111.524 215.171 110.926 219.618 110.926ZM218.053 133.282C216.704 133.282 215.616 133.972 214.788 135.352C213.99 136.732 213.591 138.848 213.591 141.7C213.591 144.399 214.006 146.361 214.833 147.588C215.661 148.784 216.735 149.382 218.053 149.382C218.759 149.382 219.479 149.136 220.215 148.646C220.294 148.592 220.371 148.536 220.446 148.479V133.56C220.384 133.543 220.322 133.526 220.261 133.512C219.648 133.358 218.912 133.282 218.053 133.282Z" fill="black"></path>
<path d="M163.753 83.8779C164.06 83.878 164.29 83.9703 164.443 84.1543C164.596 84.3076 164.673 84.5219 164.673 84.7979V134.758L178.933 120.77C180.497 119.236 181.019 117.749 180.498 116.308C179.976 114.866 178.688 113.901 176.633 113.41L174.931 112.996C174.686 112.935 174.517 112.858 174.425 112.766C174.334 112.643 174.288 112.536 174.288 112.444C174.288 112.23 174.349 112.092 174.471 112.03C174.594 111.938 174.762 111.892 174.977 111.892H194.941C195.155 111.892 195.324 111.938 195.447 112.03C195.569 112.092 195.631 112.214 195.631 112.397C195.631 112.551 195.569 112.689 195.447 112.812C195.355 112.904 195.14 112.996 194.803 113.088C192.043 113.732 189.498 114.714 187.167 116.032C184.868 117.351 182.644 119.068 180.498 121.184L178.612 123.039L194.343 150.256C194.619 150.747 194.911 151.13 195.217 151.406C195.524 151.651 195.892 151.896 196.321 152.142C196.597 152.295 196.782 152.433 196.874 152.556C196.966 152.648 197.011 152.755 197.011 152.878C197.011 153.031 196.95 153.154 196.828 153.246C196.705 153.307 196.535 153.338 196.321 153.338H171.527C171.343 153.338 171.174 153.292 171.021 153.2C170.898 153.108 170.837 152.97 170.837 152.786C170.837 152.663 170.883 152.556 170.975 152.464C171.067 152.341 171.236 152.265 171.481 152.234L173.137 151.774C173.812 151.621 174.226 151.406 174.379 151.13C174.533 150.854 174.471 150.44 174.195 149.888L166.403 135.057L164.673 136.76V149.842C164.673 150.394 164.75 150.823 164.903 151.13C165.087 151.436 165.378 151.652 165.777 151.774L167.479 152.188C167.878 152.31 168.078 152.51 168.078 152.786C168.078 153.154 167.847 153.338 167.387 153.338H145.032C144.817 153.338 144.648 153.292 144.525 153.2C144.402 153.108 144.341 152.97 144.341 152.786C144.341 152.633 144.387 152.51 144.479 152.418C144.571 152.295 144.74 152.218 144.985 152.188L146.687 151.774C147.116 151.652 147.408 151.437 147.561 151.13C147.714 150.823 147.791 150.394 147.791 149.842V91.1455C147.791 90.8391 147.714 90.6093 147.561 90.4561C147.438 90.3028 147.239 90.2256 146.963 90.2256L145.215 90.1797C144.97 90.1797 144.801 90.1339 144.709 90.042C144.617 89.9193 144.571 89.7813 144.571 89.6279C144.571 89.4439 144.617 89.3059 144.709 89.2139C144.832 89.1219 145.001 89.0457 145.215 88.9844L162.051 84.2461C162.511 84.0928 162.848 84.0004 163.063 83.9697C163.278 83.9084 163.508 83.8779 163.753 83.8779Z" fill="black"></path>
<path d="M138.708 111.662V149.842C138.708 150.394 138.785 150.823 138.938 151.13C139.122 151.436 139.414 151.651 139.812 151.774L141.514 152.188C141.76 152.218 141.928 152.295 142.02 152.418C142.112 152.51 142.158 152.632 142.158 152.786C142.158 152.97 142.097 153.108 141.974 153.2C141.882 153.292 141.714 153.338 141.468 153.338H119.066C118.852 153.338 118.683 153.292 118.56 153.2C118.438 153.108 118.376 152.97 118.376 152.786C118.376 152.632 118.422 152.51 118.514 152.418C118.606 152.295 118.775 152.218 119.02 152.188L120.722 151.774C121.152 151.651 121.443 151.436 121.596 151.13C121.75 150.823 121.826 150.394 121.826 149.842V118.01C121.826 117.703 121.75 117.473 121.596 117.32C121.474 117.166 121.274 117.09 120.998 117.09L119.25 117.044C119.005 117.044 118.836 116.998 118.744 116.906C118.652 116.783 118.606 116.645 118.606 116.492C118.606 116.308 118.652 116.17 118.744 116.078C118.867 115.986 119.036 115.909 119.25 115.848L136.086 111.11C136.577 110.956 136.914 110.864 137.098 110.834C137.313 110.772 137.528 110.742 137.742 110.742C138.08 110.742 138.325 110.834 138.478 111.018C138.632 111.202 138.708 111.416 138.708 111.662ZM130.014 108.028C127.162 108.028 124.847 107.154 123.068 105.406C121.32 103.627 120.446 101.434 120.446 98.8278C120.446 96.2518 121.32 94.0898 123.068 92.3418C124.847 90.5632 127.162 89.6738 130.014 89.6738C132.897 89.6738 135.243 90.5632 137.052 92.3418C138.862 94.0898 139.766 96.2518 139.766 98.8278C139.766 101.434 138.862 103.627 137.052 105.406C135.243 107.154 132.897 108.028 130.014 108.028Z" fill="black"></path>
<path d="M112.17 87.8799C112.385 87.88 112.538 87.9724 112.63 88.1562C112.753 88.3404 112.875 88.7236 112.998 89.3057L117.46 108.074C117.552 108.411 117.552 108.656 117.46 108.81C117.368 108.963 117.245 109.07 117.092 109.132C116.939 109.193 116.786 109.193 116.632 109.132C116.479 109.04 116.31 108.871 116.126 108.626C113.06 103.995 110.284 100.361 107.8 97.7236C105.347 95.0864 103.001 93.2316 100.762 92.1582C98.5235 91.0542 96.2231 90.502 93.8618 90.502H91.5161V119.804H95.7944C98.8914 119.804 101.222 119.175 102.786 117.918C104.38 116.661 105.515 114.284 106.19 110.788C106.282 110.512 106.39 110.328 106.512 110.236C106.635 110.144 106.758 110.098 106.88 110.098C107.279 110.098 107.539 110.328 107.662 110.788L111.342 128.82C111.403 129.065 111.404 129.28 111.342 129.464C111.281 129.617 111.173 129.74 111.02 129.832C110.867 129.863 110.713 129.878 110.56 129.878C110.407 129.878 110.208 129.755 109.962 129.51C108.276 127.363 106.788 125.707 105.5 124.542C104.213 123.346 102.924 122.518 101.636 122.058C100.379 121.567 98.8762 121.322 97.1284 121.322H91.5161V150.072C91.5162 150.471 91.7 150.808 92.0679 151.084C92.4359 151.329 92.9576 151.498 93.6323 151.59L98.3696 152.05C98.6763 152.08 98.8915 152.158 99.0141 152.28C99.1673 152.372 99.2436 152.526 99.2436 152.74C99.2435 152.893 99.1674 153.032 99.0141 153.154C98.8915 153.277 98.6914 153.338 98.4155 153.338H66.9975C66.7219 153.338 66.5072 153.277 66.354 153.154C66.2314 153.032 66.1705 152.893 66.1704 152.74C66.1704 152.403 66.4618 152.172 67.0444 152.05L69.5737 151.59C70.279 151.437 70.8008 151.253 71.1382 151.038C71.506 150.793 71.6898 150.471 71.6899 150.072V92.2041C71.6899 91.8055 71.506 91.4988 71.1382 91.2842C70.8008 91.0388 70.279 90.8389 69.5737 90.6855L67.0444 90.2256C66.4619 90.103 66.1705 89.8733 66.1704 89.5361C66.1704 89.3522 66.2314 89.2141 66.354 89.1221C66.5072 88.9995 66.7218 88.9376 66.9975 88.9375H107.248C108.076 88.9375 108.828 88.8613 109.502 88.708C110.177 88.5241 110.744 88.3402 111.204 88.1562C111.664 87.9722 111.986 87.8799 112.17 87.8799Z" fill="black"></path>
<path d="M234.149 179.548C233.043 179.548 232.021 179.359 231.083 178.981C230.159 178.603 229.354 178.078 228.668 177.406C227.996 176.72 227.471 175.915 227.093 174.991C226.715 174.053 226.526 173.038 226.526 171.946C226.526 170.84 226.715 169.825 227.093 168.901C227.471 167.963 227.996 167.151 228.668 166.465C229.354 165.779 230.159 165.247 231.083 164.869C232.021 164.491 233.043 164.302 234.149 164.302C235.241 164.302 236.249 164.491 237.173 164.869C238.097 165.247 238.895 165.779 239.567 166.465C240.253 167.151 240.785 167.963 241.163 168.901C241.541 169.825 241.73 170.84 241.73 171.946C241.73 173.038 241.541 174.046 241.163 174.97C240.785 175.894 240.253 176.699 239.567 177.385C238.895 178.071 238.097 178.603 237.173 178.981C236.249 179.359 235.241 179.548 234.149 179.548ZM234.149 176.167C234.723 176.167 235.248 176.062 235.724 175.852C236.2 175.642 236.613 175.348 236.963 174.97C237.327 174.592 237.607 174.144 237.803 173.626C237.999 173.108 238.097 172.548 238.097 171.946C238.097 171.33 237.999 170.763 237.803 170.245C237.607 169.727 237.327 169.279 236.963 168.901C236.613 168.509 236.2 168.208 235.724 167.998C235.248 167.788 234.723 167.683 234.149 167.683C233.575 167.683 233.043 167.788 232.553 167.998C232.077 168.208 231.657 168.509 231.293 168.901C230.943 169.279 230.67 169.727 230.474 170.245C230.278 170.763 230.18 171.33 230.18 171.946C230.18 172.758 230.348 173.486 230.684 174.13C231.034 174.76 231.503 175.257 232.091 175.621C232.693 175.985 233.379 176.167 234.149 176.167Z" fill="#F7F7F7"></path>
<path d="M213.058 179.548C211.952 179.548 210.93 179.366 209.992 179.002C209.068 178.624 208.263 178.099 207.577 177.427C206.905 176.741 206.38 175.936 206.002 175.012C205.638 174.074 205.456 173.052 205.456 171.946C205.456 170.854 205.645 169.846 206.023 168.922C206.415 167.998 206.961 167.193 207.661 166.507C208.361 165.821 209.18 165.289 210.118 164.911C211.07 164.533 212.099 164.344 213.205 164.344C213.905 164.344 214.591 164.435 215.263 164.617C215.935 164.799 216.558 165.072 217.132 165.436C217.72 165.786 218.224 166.213 218.644 166.717L216.439 169.216C216.005 168.74 215.515 168.369 214.969 168.103C214.437 167.837 213.842 167.704 213.184 167.704C212.624 167.704 212.092 167.802 211.588 167.998C211.098 168.194 210.671 168.481 210.307 168.859C209.943 169.237 209.656 169.685 209.446 170.203C209.236 170.721 209.131 171.309 209.131 171.967C209.131 172.611 209.229 173.199 209.425 173.731C209.635 174.249 209.929 174.697 210.307 175.075C210.699 175.439 211.161 175.719 211.693 175.915C212.239 176.111 212.841 176.209 213.499 176.209C213.933 176.209 214.346 176.153 214.738 176.041C215.144 175.915 215.522 175.74 215.872 175.516C216.222 175.292 216.523 175.04 216.775 174.76L218.518 177.532C218.182 177.91 217.72 178.253 217.132 178.561C216.558 178.869 215.914 179.114 215.2 179.296C214.5 179.464 213.786 179.548 213.058 179.548Z" fill="#F7F7F7"></path>
<path d="M195.768 179.569C195.194 179.569 194.746 179.408 194.424 179.086C194.116 178.75 193.962 178.281 193.962 177.679C193.962 177.119 194.123 176.664 194.445 176.314C194.781 175.95 195.222 175.768 195.768 175.768C196.342 175.768 196.79 175.936 197.112 176.272C197.434 176.594 197.595 177.063 197.595 177.679C197.595 178.239 197.42 178.694 197.07 179.044C196.734 179.394 196.3 179.569 195.768 179.569Z" fill="#F7F7F7"></path>
<path d="M171.437 179.338V164.638H174.65L182.378 175.117L181.685 175.033C181.587 174.249 181.503 173.521 181.433 172.849C181.363 172.163 181.314 171.449 181.286 170.707C181.272 169.965 181.265 169.111 181.265 168.145V164.638H184.751V179.338H181.496L173.474 168.544L174.503 168.691C174.601 169.545 174.678 170.252 174.734 170.812C174.79 171.372 174.832 171.855 174.86 172.261C174.888 172.653 174.909 173.024 174.923 173.374C174.937 173.71 174.944 174.088 174.944 174.508V179.338H171.437Z" fill="#F7F7F7"></path>
<path d="M155.556 164.344C156.354 164.344 157.11 164.449 157.824 164.659C158.552 164.869 159.209 165.156 159.797 165.52C160.399 165.883 160.897 166.297 161.289 166.759L159.083 169.069C158.58 168.593 158.034 168.222 157.446 167.956C156.872 167.676 156.221 167.536 155.493 167.536C154.891 167.536 154.331 167.648 153.813 167.872C153.309 168.082 152.86 168.39 152.468 168.796C152.09 169.188 151.796 169.657 151.586 170.203C151.376 170.735 151.272 171.316 151.272 171.946C151.272 172.576 151.384 173.157 151.608 173.688C151.832 174.22 152.14 174.69 152.532 175.096C152.938 175.488 153.407 175.796 153.939 176.02C154.471 176.244 155.045 176.355 155.661 176.355C156.095 176.355 156.494 176.293 156.858 176.167C157.236 176.027 157.565 175.845 157.845 175.621C158.139 175.383 158.363 175.11 158.517 174.802C158.659 174.53 158.74 174.242 158.762 173.94H155.22V171.105H162.128C162.156 171.259 162.178 171.47 162.192 171.736C162.206 172.002 162.212 172.261 162.212 172.513C162.226 172.751 162.234 172.94 162.234 173.08C162.234 174.032 162.058 174.907 161.708 175.705C161.372 176.489 160.889 177.168 160.259 177.742C159.643 178.316 158.915 178.764 158.076 179.086C157.236 179.394 156.326 179.548 155.346 179.548C154.17 179.548 153.106 179.358 152.154 178.98C151.216 178.602 150.403 178.071 149.717 177.385C149.031 176.699 148.507 175.894 148.143 174.97C147.779 174.046 147.597 173.038 147.597 171.946C147.597 170.854 147.793 169.846 148.185 168.922C148.577 167.998 149.123 167.193 149.823 166.507C150.537 165.821 151.376 165.289 152.342 164.911C153.322 164.533 154.394 164.344 155.556 164.344Z" fill="#F7F7F7"></path>
<path d="M130.397 179.338V176.314H132.875V167.662H130.397V164.638H138.944V167.662H136.466V176.314H138.944V179.338H130.397Z" fill="#F7F7F7"></path>
<path d="M115.723 179.548C114.267 179.548 113.035 179.296 112.027 178.792C111.033 178.274 110.179 177.546 109.465 176.608L111.649 174.151C112.335 175.089 113.028 175.719 113.728 176.041C114.428 176.363 115.149 176.524 115.891 176.524C116.269 176.524 116.605 176.475 116.899 176.377C117.207 176.279 117.445 176.139 117.613 175.957C117.795 175.761 117.886 175.53 117.886 175.264C117.886 175.054 117.83 174.865 117.718 174.697C117.62 174.529 117.48 174.382 117.298 174.256C117.116 174.13 116.906 174.018 116.668 173.92C116.43 173.808 116.164 173.717 115.87 173.647C115.59 173.577 115.303 173.514 115.009 173.458C114.197 173.29 113.49 173.073 112.888 172.807C112.3 172.527 111.803 172.198 111.397 171.82C111.005 171.428 110.711 170.987 110.515 170.497C110.319 169.993 110.221 169.426 110.221 168.796C110.221 167.9 110.473 167.116 110.977 166.444C111.495 165.772 112.174 165.247 113.014 164.869C113.854 164.491 114.764 164.302 115.744 164.302C117.172 164.302 118.32 164.533 119.188 164.995C120.07 165.443 120.77 166.066 121.288 166.864L119.062 169.027C118.628 168.467 118.131 168.047 117.571 167.767C117.025 167.487 116.451 167.347 115.849 167.347C115.443 167.347 115.086 167.396 114.778 167.494C114.47 167.592 114.232 167.739 114.064 167.935C113.91 168.117 113.833 168.341 113.833 168.607C113.833 168.831 113.896 169.034 114.022 169.216C114.162 169.384 114.351 169.531 114.589 169.657C114.827 169.783 115.1 169.895 115.408 169.993C115.716 170.077 116.038 170.147 116.374 170.203C117.144 170.357 117.837 170.56 118.453 170.812C119.083 171.064 119.622 171.379 120.07 171.757C120.518 172.121 120.861 172.555 121.099 173.059C121.351 173.549 121.477 174.116 121.477 174.76C121.477 175.768 121.232 176.629 120.742 177.343C120.252 178.057 119.573 178.603 118.705 178.981C117.837 179.359 116.843 179.548 115.723 179.548Z" fill="#F7F7F7"></path>
<path d="M101.033 167.704H94.2915V170.392H100.109V173.332H94.2915V176.271H101.264V179.338H90.7847V164.638H101.033V167.704Z" fill="#F7F7F7"></path>
<path d="M68.053 179.338V164.638H74.248C75.326 164.638 76.313 164.82 77.209 165.184C78.105 165.534 78.875 166.038 79.519 166.696C80.163 167.34 80.66 168.117 81.01 169.027C81.36 169.923 81.535 170.91 81.535 171.988C81.535 173.08 81.36 174.074 81.01 174.97C80.66 175.866 80.163 176.643 79.519 177.301C78.875 177.945 78.105 178.449 77.209 178.813C76.327 179.163 75.34 179.338 74.248 179.338H68.053ZM71.644 176.86L71.182 176.167H74.143C74.717 176.167 75.235 176.069 75.697 175.873C76.159 175.677 76.551 175.397 76.873 175.033C77.209 174.655 77.461 174.214 77.629 173.71C77.811 173.192 77.902 172.618 77.902 171.988C77.902 171.358 77.811 170.791 77.629 170.287C77.461 169.769 77.209 169.328 76.873 168.964C76.551 168.586 76.159 168.299 75.697 168.103C75.235 167.907 74.717 167.809 74.143 167.809H71.119L71.644 167.158V176.86Z" fill="#F7F7F7"></path>
</svg>