<svg width="569" height="618" viewBox="0 0 569 618" fill="none" xmlns="http://www.w3.org/2000/svg">
<path d="M459 229.5C459 356.249 356.249 459 229.5 459C102.751 459 0 356.249 0 229.5C0 102.751 102.751 0 229.5 0C356.249 0 459 102.751 459 229.5Z" fill="#FF7E43"></path>
<path d="M484.992 250.181C484.283 166.013 415.835 98.0003 331.5 98C264.653 98.0002 207.789 140.73 186.725 200.366C186.49 201.032 185.925 201.531 185.233 201.673L121.88 214.704C120.372 215.015 119.765 216.841 120.788 217.992L175.584 279.659C175.915 280.032 176.095 280.513 176.089 281.011C175.502 333.583 183.039 390.731 190.112 425.266C200.54 484.575 248.467 531.396 308.258 540.067C309.251 540.211 309.999 541.058 309.999 542.062V616C309.999 617.105 310.894 618 311.999 618H316.999C318.103 618 318.999 617.105 318.999 616V543.361C318.999 542.17 320.031 541.244 321.215 541.368C337.202 543.044 354.254 544.142 372.066 544.779C373.144 544.817 373.999 545.701 373.999 546.779V616C373.999 617.105 374.894 618 375.999 618H380.999C382.103 618 382.999 617.105 382.999 616V547.161C382.999 546.037 383.92 545.134 385.044 545.16C439.57 546.428 500.283 543.81 558.915 540.541C561.08 540.42 561.786 536.883 559.93 535.763C526.79 515.765 478.09 449.499 477.717 412.162C477.311 371.446 488.262 309.895 484.992 250.181Z" fill="#101418"></path>
<path d="M266.95 186.662C275.128 183.936 284.002 188.195 287 196.286C289.997 204.376 286.04 213.386 278.046 216.65C272.643 218.86 266.45 217.946 261.915 214.266C257.379 210.586 255.21 204.723 256.261 198.975C257.3 193.227 261.402 188.506 266.95 186.662Z" fill="#FAFAFA"></path>
</svg>